<?xml version="1.0" encoding="UTF-8" standalone="no"?><!DOCTYPE svg PUBLIC "-//W3C//DTD SVG 1.1//EN" "http://www.w3.org/Graphics/SVG/1.1/DTD/svg11.dtd"><svg width="100%" height="100%" viewBox="0 0 96 72" version="1.1" xmlns="http://www.w3.org/2000/svg" xmlns:xlink="http://www.w3.org/1999/xlink" xml:space="preserve" xmlns:serif="http://www.serif.com/" style="fill-rule:evenodd;clip-rule:evenodd;stroke-linecap:round;stroke-linejoin:round;stroke-miterlimit:1.5;"><g id="_02" serif:id="02"><rect x="0" y="0" width="96" height="72" style="fill:#ffc139;"/><path d="M27.325,32.531c0.67,-0.729 1.457,-1.488 2.394,-2.295c4.626,-3.983 9.378,-4.362 12.164,-5.665c0.405,-0.19 2.613,-1.223 5.533,-0.756c0.981,0.156 0.859,0.95 2.635,0.555c0.985,-0.218 4.071,-0.101 1.401,-1.408c-1.455,-0.713 -1.81,-0.185 -2.743,-1.526c0.761,0.076 0.745,0.058 1.458,0.311c1.36,0.482 0.47,-0.834 0.451,-0.993c-0.155,-1.267 1.899,0.801 1.987,0.819c1.516,0.317 1.13,-1.87 1.587,-2.27c1.35,-1.183 0.937,1.756 1.303,2.482c0.231,0.459 3.526,0.114 1.055,2.203c-1.292,1.092 -1.925,0.907 -2.535,1.215c-2.031,1.024 0.069,1.701 0.967,2.264c1.083,0.677 1.185,1.21 1.389,1.392c1.153,1.036 -0.841,4.448 -3.19,6.107c-0.227,-2.546 -0.403,-2.954 -0.951,-3.645c-0.399,-0.503 -1.512,-1.968 -3.262,-2.076c-0.263,-0.227 -0.779,-0.503 -2.535,-0.707c-5.412,-0.63 -6.397,0.229 -6.809,0.588c-2.479,2.162 -2.043,4.986 -1.978,5.963c0.161,2.393 0.976,2.089 3.382,2.102c4.886,0.024 5.015,2.056 4.785,2.714c-0.469,1.341 -2.061,-0.896 -3.937,1.813c2.675,0.242 2.656,0.469 2.935,0.901c0.665,1.03 2.009,2.305 1.546,3.459c-0.223,0.557 -1.336,-0.279 -1.479,0.233c-0.023,0.083 2.077,2.634 -0.875,6.591c-0.389,-0.862 -0.287,-0.887 -0.664,-1.759c-0.291,-0.674 -0.442,-0.528 -1.179,-0.639c-0.055,2.457 0.076,4.339 -1.825,6.563c-0.695,0.813 -1.381,3.144 -5.924,3.045c-2.88,-0.062 -1.749,-1.495 -2.522,-3.356c-0.602,-1.451 -1.391,-1.974 -2.233,-2.237c-1.322,0.342 -2.689,0.319 -3.074,0.335c-3.959,0.174 -1.873,6.099 -0.559,5.963c1.053,-0.109 0.718,-0.533 0.843,-1.571c0.214,-1.773 3.951,-2.555 2.999,-0.409c-0.402,0.907 -3.73,-0.173 -1.854,2.443c2.252,3.139 5.548,0.594 6.73,0.641c1.138,0.046 0.43,0.61 -0.044,1.654c1.44,-0.41 2.351,-0.45 3.958,-2.363c1.608,-1.916 2.152,-1.048 4.913,-2.613c-0.059,0.957 0.083,1.584 -0.699,2.437c-0.459,0.501 -0.94,0.579 -0.959,0.963c-0.08,1.591 1.298,1.111 3.306,0.615c0.22,-0.054 2.368,-0.584 1.726,-2.243c-0.74,-1.911 0.807,-6.418 1.503,-4.019c1.069,3.687 3.324,3.256 2.806,2.198c-1.068,-2.179 -1.04,-2.461 0.695,-4.653c1.401,-1.772 0.733,-2.069 1.629,-4.14c1.139,2.839 0.368,4.265 1.6,3.498c2.358,-1.467 2.834,-1.991 1.307,-4.329c-0.186,-0.285 -1.569,-2.402 -0.283,-4.249c2.091,-3.004 4.487,-1.866 4.544,-1.854c-0.553,0.292 -1.464,0.487 -1.351,1.417c0.13,1.068 -0.249,5.316 0.968,4.827c1.148,-0.462 -0.759,-3.408 6.026,-4.346c3.622,-0.5 2.242,-2.903 2.946,-2.724c1.883,0.479 1.88,2.77 -0.18,3.908c1.586,-0.053 1.622,0.079 3.026,-0.67c0.39,-0.208 0.898,-1.184 1.195,-1.463c1.543,-1.451 0.424,-1.913 1.092,-3.919c0.784,0.607 0.75,0.617 1.355,1.428c1.71,2.293 0.227,6.608 0.144,6.749c-2.187,3.716 -2.333,3.808 -6.214,5.348c-2.616,1.037 -7.375,0.133 -9.409,0.57c-5.565,1.194 -5.794,6.656 -5.946,7.012c-1.905,4.456 -4.924,4.903 -6.179,5.362c-3.445,1.259 -11.467,1.475 -15.663,0.518c-2.477,-0.564 -2.418,-0.69 -6.073,-1.955c-5.371,-1.859 -4.199,-4.691 -3.489,-9.5c0.271,-1.833 0.507,-2.587 0.859,-3.458c-1.441,-0.979 -2.933,-2.478 -2.578,-4.365c0.075,-0.397 0.763,-4.049 1.059,-4.942c0.936,-2.822 1.479,-5.056 2.925,-7.391c-0.055,-0.488 -0.109,-0.984 -0.11,-1.021c-0.099,-2.888 -0.353,-2.941 0.383,-4.491c1.952,-4.113 2.249,-3.946 2.406,-4.309c0.946,-2.183 1.214,-2.044 1.578,-3.075c0.797,-2.262 2.316,-2.512 3.677,-3.841c-0.468,-0.013 -4.14,-0.115 -5.687,1.38c-2.814,2.717 -0.621,4.204 -0.363,4.473c0.253,0.264 0.819,0.854 -2.443,3.857c-1.048,0.964 -0.112,3.245 -0.101,3.911c0.053,3.351 0.395,3.824 -3.229,6.648c-2.375,1.85 -1.838,2.369 -4.054,4.303c0.068,-0.712 0.379,-4.018 4.773,-7.57c1.16,-0.938 0.48,-4.363 0.448,-4.442c-0.693,-1.729 -0.959,-1.759 -0.436,-3.546c0.701,-2.394 1.764,-2.27 1.191,-3.092c-0.026,-0.037 -2.691,0.381 -3.932,1.183c-0.248,0.16 -2.147,1.387 -0.029,3.687c0.946,1.027 0.778,1.273 -0.038,4.012c-0.612,-1.043 -0.683,-1.229 -2.258,-2.158c0.469,1.437 0.529,1.398 0.567,1.522c0.345,1.13 0.099,2.432 0.06,2.639c-0.293,1.551 -3.937,1.461 -1.098,5.743c-0.292,-0.061 -4.239,-0.715 -3.359,-2.272c1.329,-2.35 1.311,-2.407 1.223,-5.113c-0.073,-2.255 -1.697,-3.422 -1.348,-2.571c0.452,1.103 -0.384,2.343 -0.499,2.513c-1.528,2.264 -0.801,6.031 -0.577,6.407c1.759,2.941 1.346,3.1 1.333,6.538c-0.096,-2.043 -0.382,-1.997 -2.067,-3.491c-2.409,-2.137 -1.707,-2.591 -1.461,-5.8c-1.274,2.175 -1.104,2.263 -1.081,4.785c0.003,0.315 0.018,1.901 1.665,3.575c0.727,0.74 1.165,0.235 2.719,2.22c0.177,0.226 0.451,0.576 -0.452,3.556c-0.245,0.807 -2.732,2.986 -2.307,0.694c0.49,-2.641 -0.704,-2.356 -2.195,-5.11c1.008,3.893 -0.801,8.298 -1.122,8.555c-2.248,1.792 -2.393,1.687 -4.047,1.53c0.209,-0.201 1.51,-1.454 2.387,-2.737c0.187,-0.273 0.962,-1.407 0.376,-4.111c-1.247,-5.748 -0.973,-8.939 -0.523,-17.875c0.046,-0.918 2.158,-6.882 2.782,-8.016c3.314,-6.026 3.366,-7.385 15.697,-10.824c5.124,-1.429 17.223,-1.052 19.365,-0.141c1.446,0.615 0.66,4.187 0.626,4.264c-1.387,3.218 -3.662,3.818 -5.04,4.561c-4.948,2.669 -8.701,1.748 -10.933,4.822c-0.383,0.528 -1.046,3.483 -0.398,5.53Z" style="stroke:#000;stroke-width:0.24px;"/><g transform="matrix(0.565075,0,0,1,-8.76377,0)"><text x="121.811px" y="31.366px" style="font-family:'SimHei', monospace;font-size:25.809px;">鳳凰</text></g></g></svg>