<?xml version="1.0" encoding="UTF-8" standalone="no"?><!DOCTYPE svg PUBLIC "-//W3C//DTD SVG 1.1//EN" "http://www.w3.org/Graphics/SVG/1.1/DTD/svg11.dtd"><svg width="100%" height="100%" viewBox="0 0 96 72" version="1.1" xmlns="http://www.w3.org/2000/svg" xmlns:xlink="http://www.w3.org/1999/xlink" xml:space="preserve" xmlns:serif="http://www.serif.com/" style="fill-rule:evenodd;clip-rule:evenodd;stroke-linejoin:round;stroke-miterlimit:2;"><g id="_04" serif:id="04"><rect x="0" y="0" width="96" height="72" style="fill:#e80000;"/><circle cx="48" cy="36" r="19.713" style="fill:#ffc139;"/><path d="M26.8,41.9c-0,0 29.731,2.735 37.583,-20.115l4.235,7.499c0,0 -3.97,20.38 -38.995,20.027l-2.823,-7.411Z" style="fill:#e80000;"/><path d="M27.134,42.821c0,0 29.732,2.735 37.584,-20.115l3.529,5.921c0,-0 -3.97,20.38 -38.995,20.027l-2.118,-5.833Z" style="fill:#ffc139;"/><path d="M27.388,43.707c-0,-0 29.957,2.625 37.809,-20.225l2.744,4.451c0,-0 -3.97,20.38 -38.995,20.027l-1.558,-4.253Z" style="fill:#e80000;"/></g></svg>