<?xml version="1.0" encoding="UTF-8" standalone="no"?><!DOCTYPE svg PUBLIC "-//W3C//DTD SVG 1.1//EN" "http://www.w3.org/Graphics/SVG/1.1/DTD/svg11.dtd"><svg width="100%" height="100%" viewBox="0 0 97 72" version="1.1" xmlns="http://www.w3.org/2000/svg" xmlns:xlink="http://www.w3.org/1999/xlink" xml:space="preserve" xmlns:serif="http://www.serif.com/" style="fill-rule:evenodd;clip-rule:evenodd;stroke-linecap:round;stroke-linejoin:round;stroke-miterlimit:1.5;"><g id="_01" serif:id="01"><rect x="0.01" y="-0" width="96" height="72" style="fill:#f00;"/><rect x="0" y="68.464" width="96" height="3.536" style="fill:#fff;"/><rect x="0" y="58.683" width="96" height="3.536" style="fill:#fff;"/><rect x="0" y="48.903" width="96" height="3.536" style="fill:#fff;"/><rect x="0" y="39.122" width="96" height="3.536" style="fill:#fff;"/><rect x="0" y="29.342" width="96" height="3.536" style="fill:#fff;"/><rect x="0" y="19.561" width="96" height="3.536" style="fill:#fff;"/><rect x="0" y="9.781" width="96" height="3.536" style="fill:#fff;"/><rect x="0" y="0" width="96" height="3.536" style="fill:#fff;"/><rect x="0.01" y="0" width="38.397" height="28.797" style="fill:#140790;"/><path d="M30.376,11.954c0.271,0.386 0.489,0.86 0.231,1.424c-0.089,0.194 -0.44,0.561 -0.404,1.675c0.018,0.572 1.268,1.069 -0.088,1.633c-0.063,0.027 -1.086,0.215 -1.553,-0.125c-0.905,-0.658 -1.19,-0.946 -1.486,-1.294c-0.079,0.202 -0.17,0.417 -0.273,0.646c-0.208,0.461 -0.383,0.723 -0.601,0.89c-0.182,0.518 -0.431,1.211 -0.328,2.595c0.126,1.69 0.711,2.524 1.37,3.473c-0.737,-0.03 -1.105,0.015 -1.33,-0.389c-0.312,-0.558 0.018,-0.848 -1.246,-1.586c-0.457,-0.268 0.36,-0.612 -0.181,-1.12c-0.422,-0.398 -0.958,-1.238 -1.339,-2.082c-0.631,0.769 -0.635,0.809 -0.738,0.913c-0.241,0.245 -0.412,0.739 -0.573,0.943c-0.464,0.584 -0.467,0.952 -0.879,1.328c-0.498,0.454 -0.469,0.472 -0.835,1.034c-0.283,0.435 0.074,1.164 -0.145,1.097c-0.311,-0.093 -0.331,-0.021 -0.484,-0.117c-0.034,-0.021 -0.247,-0.107 -0.269,-0.115c0.007,-0.03 0.005,-0.094 0.062,-0.266c0.377,-1.13 0.066,-1.211 0.471,-2.044c0.312,-0.642 0.748,-0.527 0.749,-0.887c0.002,-0.758 -0.024,-0.763 0.222,-1.478c0.075,-0.217 0.138,-0.399 0.192,-0.552c-1.121,-0.042 -2.78,-0.035 -5.804,0.326c-1.031,0.123 -1.885,0.167 -2.594,0.155c-0.045,0.367 -0.061,0.811 -0.019,1.367c0.125,1.69 0.71,2.524 1.369,3.473c-0.736,-0.03 -1.104,0.015 -1.33,-0.389c-0.311,-0.558 0.018,-0.848 -1.245,-1.586c-0.458,-0.268 0.359,-0.612 -0.181,-1.12c-0.422,-0.398 -0.959,-1.238 -1.34,-2.082c-0.631,0.769 -0.635,0.809 -0.737,0.913c-0.242,0.245 -0.412,0.739 -0.574,0.943c-0.464,0.584 -0.467,0.952 -0.879,1.328c-0.497,0.454 -0.469,0.472 -0.834,1.034c-0.283,0.435 0.074,1.164 -0.146,1.097c-0.31,-0.093 -0.33,-0.021 -0.484,-0.117c-0.034,-0.021 -0.247,-0.107 -0.268,-0.115c0.007,-0.03 0.004,-0.094 0.061,-0.266c0.377,-1.13 0.067,-1.211 0.471,-2.044c0.312,-0.642 0.749,-0.527 0.749,-0.887c0.002,-0.758 -0.023,-0.763 0.223,-1.478c0.469,-1.365 0.492,-1.355 0.525,-1.476c0.044,-0.155 0.083,-0.298 0.243,-0.726c-0.344,-0.252 -0.859,-0.589 -1.654,-1.069c0.483,-1.504 -0.049,-1.739 1.013,-2.902c1.954,-2.141 2.968,-1.341 10.633,-1.421c2.291,-0.024 1.851,-1.958 4.058,-2.016c1.381,-0.036 1.261,-0.406 2.496,-1.028c0.132,-0.067 0.824,-0.415 1.608,0.387c0.833,-0.303 2.06,-0.756 3.26,-0.034c0.52,0.312 1.358,0.195 1.311,1.598c-0.002,0.053 -0.292,0.827 -0.514,1.088c-0.088,0.105 -0.147,0.159 -0.2,0.204c0.035,0.019 0.06,0.035 0.076,0.043c0.164,0.082 0.129,0.139 0.66,0.357c0.093,0.038 0.491,0.2 1.019,-0.731c0.539,-0.951 0.027,-1.897 -0.05,-2.041c-0.309,-0.571 -0.398,-0.496 -0.845,-0.969c-0.04,-0.043 -0.227,-0.169 -0.247,-0.183c0.918,-0.089 1.211,-0.153 2.074,1.357c0.13,0.228 0.773,1.719 0.274,2.517c-0.122,0.195 -0.312,0.631 -1.096,0.986c-0.12,0.054 -1.025,0.168 -1.627,-0.089Z" style="fill:#fff;stroke:#000;stroke-width:0.24px;"/></g></svg>